%TF.GenerationSoftware,KiCad,Pcbnew,9.0.3-9.0.3-0~ubuntu24.04.1*%
%TF.CreationDate,2025-12-01T14:44:41+02:00*%
%TF.ProjectId,Induction_Meassure,496e6475-6374-4696-9f6e-5f4d65617373,rev?*%
%TF.SameCoordinates,Original*%
%TF.FileFunction,Copper,L1,Top*%
%TF.FilePolarity,Positive*%
%FSLAX46Y46*%
G04 Gerber Fmt 4.6, Leading zero omitted, Abs format (unit mm)*
G04 Created by KiCad (PCBNEW 9.0.3-9.0.3-0~ubuntu24.04.1) date 2025-12-01 14:44:41*
%MOMM*%
%LPD*%
G01*
G04 APERTURE LIST*
G04 Aperture macros list*
%AMRoundRect*
0 Rectangle with rounded corners*
0 $1 Rounding radius*
0 $2 $3 $4 $5 $6 $7 $8 $9 X,Y pos of 4 corners*
0 Add a 4 corners polygon primitive as box body*
4,1,4,$2,$3,$4,$5,$6,$7,$8,$9,$2,$3,0*
0 Add four circle primitives for the rounded corners*
1,1,$1+$1,$2,$3*
1,1,$1+$1,$4,$5*
1,1,$1+$1,$6,$7*
1,1,$1+$1,$8,$9*
0 Add four rect primitives between the rounded corners*
20,1,$1+$1,$2,$3,$4,$5,0*
20,1,$1+$1,$4,$5,$6,$7,0*
20,1,$1+$1,$6,$7,$8,$9,0*
20,1,$1+$1,$8,$9,$2,$3,0*%
G04 Aperture macros list end*
%TA.AperFunction,SMDPad,CuDef*%
%ADD10RoundRect,0.062500X0.375000X0.062500X-0.375000X0.062500X-0.375000X-0.062500X0.375000X-0.062500X0*%
%TD*%
%TA.AperFunction,SMDPad,CuDef*%
%ADD11RoundRect,0.062500X0.062500X0.375000X-0.062500X0.375000X-0.062500X-0.375000X0.062500X-0.375000X0*%
%TD*%
%TA.AperFunction,HeatsinkPad*%
%ADD12C,0.500000*%
%TD*%
%TA.AperFunction,HeatsinkPad*%
%ADD13R,2.600000X2.600000*%
%TD*%
%TA.AperFunction,SMDPad,CuDef*%
%ADD14RoundRect,0.250000X0.262500X0.450000X-0.262500X0.450000X-0.262500X-0.450000X0.262500X-0.450000X0*%
%TD*%
%TA.AperFunction,ComponentPad*%
%ADD15R,1.700000X1.700000*%
%TD*%
%TA.AperFunction,ComponentPad*%
%ADD16C,1.700000*%
%TD*%
%TA.AperFunction,SMDPad,CuDef*%
%ADD17RoundRect,0.225000X0.225000X0.250000X-0.225000X0.250000X-0.225000X-0.250000X0.225000X-0.250000X0*%
%TD*%
%TA.AperFunction,SMDPad,CuDef*%
%ADD18RoundRect,0.250000X-0.325000X-0.650000X0.325000X-0.650000X0.325000X0.650000X-0.325000X0.650000X0*%
%TD*%
%TA.AperFunction,ViaPad*%
%ADD19C,0.600000*%
%TD*%
%TA.AperFunction,Conductor*%
%ADD20C,0.200000*%
%TD*%
%TA.AperFunction,Conductor*%
%ADD21C,0.500000*%
%TD*%
G04 APERTURE END LIST*
D10*
%TO.P,U1,1,SCL*%
%TO.N,Net-(J1-Pin_2)*%
X171187500Y-81550000D03*
%TO.P,U1,2,SDA*%
%TO.N,Net-(J1-Pin_3)*%
X171187500Y-81050000D03*
%TO.P,U1,3,CLKIN*%
%TO.N,unconnected-(U1-CLKIN-Pad3)*%
X171187500Y-80550000D03*
%TO.P,U1,4,ADDR*%
%TO.N,GND*%
X171187500Y-80050000D03*
D11*
%TO.P,U1,5,INTB*%
%TO.N,unconnected-(U1-INTB-Pad5)*%
X170000000Y-78862500D03*
%TO.P,U1,6,SD*%
%TO.N,Net-(J1-Pin_4)*%
X169500000Y-78862500D03*
%TO.P,U1,7,VDD*%
X169000000Y-78862500D03*
%TO.P,U1,8,GND*%
%TO.N,GND*%
X168500000Y-78862500D03*
D10*
%TO.P,U1,9,IN0A*%
%TO.N,Net-(J2-Pin_1)*%
X167312500Y-80050000D03*
%TO.P,U1,10,IN0B*%
%TO.N,Net-(J2-Pin_2)*%
X167312500Y-80550000D03*
%TO.P,U1,11,IN1A*%
%TO.N,unconnected-(U1-IN1A-Pad11)*%
X167312500Y-81050000D03*
%TO.P,U1,12,IN1B*%
%TO.N,unconnected-(U1-IN1B-Pad12)*%
X167312500Y-81550000D03*
D11*
%TO.P,U1,13,IN2A*%
%TO.N,unconnected-(U1-IN2A-Pad13)*%
X168500000Y-82737500D03*
%TO.P,U1,14,IN2B*%
%TO.N,unconnected-(U1-IN2B-Pad14)*%
X169000000Y-82737500D03*
%TO.P,U1,15,IN3A*%
%TO.N,unconnected-(U1-IN3A-Pad15)*%
X169500000Y-82737500D03*
%TO.P,U1,16,IN3B*%
%TO.N,unconnected-(U1-IN3B-Pad16)*%
X170000000Y-82737500D03*
D12*
%TO.P,U1,17,GND*%
%TO.N,GND*%
X170300000Y-81850000D03*
X170300000Y-80800000D03*
X170300000Y-79750000D03*
X169250000Y-81850000D03*
X169250000Y-80800000D03*
D13*
X169250000Y-80800000D03*
D12*
X169250000Y-79750000D03*
X168200000Y-81850000D03*
X168200000Y-80800000D03*
X168200000Y-79750000D03*
%TD*%
D14*
%TO.P,R1,1*%
%TO.N,Net-(J1-Pin_4)*%
X175912500Y-79900000D03*
%TO.P,R1,2*%
%TO.N,Net-(J1-Pin_3)*%
X174087500Y-79900000D03*
%TD*%
%TO.P,R2,1*%
%TO.N,Net-(J1-Pin_4)*%
X175900000Y-82000000D03*
%TO.P,R2,2*%
%TO.N,Net-(J1-Pin_2)*%
X174075000Y-82000000D03*
%TD*%
D15*
%TO.P,J2,1,Pin_1*%
%TO.N,Net-(J2-Pin_1)*%
X152900000Y-78900000D03*
D16*
%TO.P,J2,2,Pin_2*%
%TO.N,Net-(J2-Pin_2)*%
X152900000Y-81440000D03*
%TD*%
D17*
%TO.P,C1,1*%
%TO.N,GND*%
X171750000Y-77400000D03*
%TO.P,C1,2*%
%TO.N,Net-(J1-Pin_4)*%
X170200000Y-77400000D03*
%TD*%
D18*
%TO.P,C2,1*%
%TO.N,Net-(J1-Pin_4)*%
X169750000Y-75200000D03*
%TO.P,C2,2*%
%TO.N,GND*%
X172700000Y-75200000D03*
%TD*%
D15*
%TO.P,J1,1,Pin_1*%
%TO.N,GND*%
X173900000Y-65400000D03*
D16*
%TO.P,J1,2,Pin_2*%
%TO.N,Net-(J1-Pin_2)*%
X171360000Y-65400000D03*
%TO.P,J1,3,Pin_3*%
%TO.N,Net-(J1-Pin_3)*%
X168820000Y-65400000D03*
%TO.P,J1,4,Pin_4*%
%TO.N,Net-(J1-Pin_4)*%
X166280000Y-65400000D03*
%TD*%
D19*
%TO.N,GND*%
X172700000Y-73700000D03*
X173200000Y-77400000D03*
%TO.N,Net-(J1-Pin_4)*%
X175900000Y-80900000D03*
X169750000Y-76600000D03*
%TD*%
D20*
%TO.N,GND*%
X170300000Y-79750000D02*
X170887500Y-79750000D01*
X168500000Y-79450000D02*
X168200000Y-79750000D01*
X171750000Y-77400000D02*
X173200000Y-77400000D01*
X170887500Y-79750000D02*
X171187500Y-80050000D01*
X168500000Y-78862500D02*
X168500000Y-79450000D01*
X172700000Y-73700000D02*
X172700000Y-75200000D01*
D21*
%TO.N,Net-(J1-Pin_4)*%
X169750000Y-77400000D02*
X169275000Y-77875000D01*
X169275000Y-77875000D02*
X169076000Y-78074000D01*
X166280000Y-65400000D02*
X169750000Y-68870000D01*
D20*
X169750000Y-76600000D02*
X169750000Y-77850000D01*
D21*
X169750000Y-68870000D02*
X169750000Y-72000000D01*
X169750000Y-72000000D02*
X169750000Y-75200000D01*
X169750000Y-76600000D02*
X169750000Y-75200000D01*
X169750000Y-76600000D02*
X169750000Y-77400000D01*
D20*
X169750000Y-77850000D02*
X169500000Y-78100000D01*
X175900000Y-82000000D02*
X175900000Y-79912500D01*
D21*
X169275000Y-77875000D02*
X169424000Y-78024000D01*
D20*
X175900000Y-79912500D02*
X175912500Y-79900000D01*
D21*
X169076000Y-78074000D02*
X169076000Y-78862500D01*
X169424000Y-78024000D02*
X169424000Y-78862500D01*
D20*
X169500000Y-78100000D02*
X169500000Y-78862500D01*
D21*
X169275000Y-77875000D02*
X169275000Y-78587500D01*
D20*
%TO.N,Net-(J2-Pin_1)*%
X154050000Y-80050000D02*
X152900000Y-78900000D01*
X167312500Y-80050000D02*
X154050000Y-80050000D01*
%TO.N,Net-(J1-Pin_3)*%
X171187500Y-81050000D02*
X172937500Y-81050000D01*
X172937500Y-81050000D02*
X174087500Y-79900000D01*
X174087500Y-70667500D02*
X174087500Y-79900000D01*
X168820000Y-65400000D02*
X174087500Y-70667500D01*
%TO.N,Net-(J1-Pin_2)*%
X172400000Y-81550000D02*
X173625000Y-81550000D01*
X177200000Y-71240000D02*
X177200000Y-82600000D01*
X171187500Y-81550000D02*
X172400000Y-81550000D01*
X173625000Y-81550000D02*
X174075000Y-82000000D01*
X177200000Y-82600000D02*
X176500000Y-83300000D01*
X171360000Y-65400000D02*
X177200000Y-71240000D01*
X175375000Y-83300000D02*
X174075000Y-82000000D01*
X176500000Y-83300000D02*
X175375000Y-83300000D01*
%TO.N,Net-(J2-Pin_2)*%
X167312500Y-80550000D02*
X153790000Y-80550000D01*
X153790000Y-80550000D02*
X152900000Y-81440000D01*
%TD*%
%TA.AperFunction,Conductor*%
%TO.N,GND*%
G36*
X185632539Y-63900185D02*
G01*
X185678294Y-63952989D01*
X185689500Y-64004500D01*
X185689500Y-97755500D01*
X185669815Y-97822539D01*
X185617011Y-97868294D01*
X185565500Y-97879500D01*
X151814500Y-97879500D01*
X151747461Y-97859815D01*
X151701706Y-97807011D01*
X151690500Y-97755500D01*
X151690500Y-94578711D01*
X152949500Y-94578711D01*
X152949500Y-94821288D01*
X152981161Y-95061785D01*
X153043947Y-95296104D01*
X153085367Y-95396100D01*
X153136776Y-95520212D01*
X153258064Y-95730289D01*
X153258066Y-95730292D01*
X153258067Y-95730293D01*
X153405733Y-95922736D01*
X153405739Y-95922743D01*
X153577256Y-96094260D01*
X153577262Y-96094265D01*
X153769711Y-96241936D01*
X153979788Y-96363224D01*
X154203900Y-96456054D01*
X154438211Y-96518838D01*
X154618586Y-96542584D01*
X154678711Y-96550500D01*
X154678712Y-96550500D01*
X154921289Y-96550500D01*
X154969388Y-96544167D01*
X155161789Y-96518838D01*
X155396100Y-96456054D01*
X155620212Y-96363224D01*
X155830289Y-96241936D01*
X156022738Y-96094265D01*
X156194265Y-95922738D01*
X156341936Y-95730289D01*
X156463224Y-95520212D01*
X156556054Y-95296100D01*
X156618838Y-95061789D01*
X156650500Y-94821288D01*
X156650500Y-94678711D01*
X180749500Y-94678711D01*
X180749500Y-94921288D01*
X180781161Y-95161785D01*
X180843947Y-95396104D01*
X180936773Y-95620205D01*
X180936776Y-95620212D01*
X181058064Y-95830289D01*
X181058066Y-95830292D01*
X181058067Y-95830293D01*
X181205733Y-96022736D01*
X181205739Y-96022743D01*
X181377256Y-96194260D01*
X181377262Y-96194265D01*
X181569711Y-96341936D01*
X181779788Y-96463224D01*
X182003900Y-96556054D01*
X182238211Y-96618838D01*
X182418586Y-96642584D01*
X182478711Y-96650500D01*
X182478712Y-96650500D01*
X182721289Y-96650500D01*
X182769388Y-96644167D01*
X182961789Y-96618838D01*
X183196100Y-96556054D01*
X183420212Y-96463224D01*
X183630289Y-96341936D01*
X183822738Y-96194265D01*
X183994265Y-96022738D01*
X184141936Y-95830289D01*
X184263224Y-95620212D01*
X184356054Y-95396100D01*
X184418838Y-95161789D01*
X184450500Y-94921288D01*
X184450500Y-94678712D01*
X184418838Y-94438211D01*
X184356054Y-94203900D01*
X184263224Y-93979788D01*
X184141936Y-93769711D01*
X184081018Y-93690321D01*
X183994266Y-93577263D01*
X183994260Y-93577256D01*
X183822743Y-93405739D01*
X183822736Y-93405733D01*
X183630293Y-93258067D01*
X183630292Y-93258066D01*
X183630289Y-93258064D01*
X183420212Y-93136776D01*
X183420205Y-93136773D01*
X183196104Y-93043947D01*
X182961785Y-92981161D01*
X182721289Y-92949500D01*
X182721288Y-92949500D01*
X182478712Y-92949500D01*
X182478711Y-92949500D01*
X182238214Y-92981161D01*
X182003895Y-93043947D01*
X181779794Y-93136773D01*
X181779785Y-93136777D01*
X181569706Y-93258067D01*
X181377263Y-93405733D01*
X181377256Y-93405739D01*
X181205739Y-93577256D01*
X181205733Y-93577263D01*
X181058067Y-93769706D01*
X180936777Y-93979785D01*
X180936773Y-93979794D01*
X180843947Y-94203895D01*
X180781161Y-94438214D01*
X180749500Y-94678711D01*
X156650500Y-94678711D01*
X156650500Y-94578712D01*
X156618838Y-94338211D01*
X156556054Y-94103900D01*
X156463224Y-93879788D01*
X156341936Y-93669711D01*
X156194265Y-93477262D01*
X156194260Y-93477256D01*
X156022743Y-93305739D01*
X156022736Y-93305733D01*
X155830293Y-93158067D01*
X155830292Y-93158066D01*
X155830289Y-93158064D01*
X155620212Y-93036776D01*
X155620205Y-93036773D01*
X155396104Y-92943947D01*
X155161785Y-92881161D01*
X154921289Y-92849500D01*
X154921288Y-92849500D01*
X154678712Y-92849500D01*
X154678711Y-92849500D01*
X154438214Y-92881161D01*
X154203895Y-92943947D01*
X153979794Y-93036773D01*
X153979785Y-93036777D01*
X153769706Y-93158067D01*
X153577263Y-93305733D01*
X153577256Y-93305739D01*
X153405739Y-93477256D01*
X153405733Y-93477263D01*
X153258067Y-93669706D01*
X153136777Y-93879785D01*
X153136773Y-93879794D01*
X153043947Y-94103895D01*
X152981161Y-94338214D01*
X152949500Y-94578711D01*
X151690500Y-94578711D01*
X151690500Y-82439758D01*
X151710185Y-82372719D01*
X151762989Y-82326964D01*
X151832147Y-82317020D01*
X151895703Y-82346045D01*
X151902181Y-82352077D01*
X152020213Y-82470109D01*
X152192179Y-82595048D01*
X152192181Y-82595049D01*
X152192184Y-82595051D01*
X152381588Y-82691557D01*
X152583757Y-82757246D01*
X152793713Y-82790500D01*
X152793714Y-82790500D01*
X153006286Y-82790500D01*
X153006287Y-82790500D01*
X153216243Y-82757246D01*
X153418412Y-82691557D01*
X153607816Y-82595051D01*
X153738619Y-82500018D01*
X153779786Y-82470109D01*
X153779788Y-82470106D01*
X153779792Y-82470104D01*
X153930104Y-82319792D01*
X153930106Y-82319788D01*
X153930109Y-82319786D01*
X154045466Y-82161009D01*
X154055051Y-82147816D01*
X154151557Y-81958412D01*
X154217246Y-81756243D01*
X154250500Y-81546287D01*
X154250500Y-81333713D01*
X154250500Y-81333706D01*
X154244195Y-81293897D01*
X154253150Y-81224604D01*
X154298146Y-81171152D01*
X154364898Y-81150513D01*
X154366668Y-81150500D01*
X166265899Y-81150500D01*
X166295095Y-81159073D01*
X166324858Y-81165414D01*
X166328295Y-81168821D01*
X166332938Y-81170185D01*
X166352859Y-81193175D01*
X166374475Y-81214606D01*
X166376335Y-81220268D01*
X166378693Y-81222989D01*
X166386951Y-81247622D01*
X166388130Y-81252932D01*
X166388991Y-81259472D01*
X166390265Y-81262548D01*
X166392613Y-81273122D01*
X166390965Y-81297638D01*
X166393581Y-81322073D01*
X166390517Y-81332522D01*
X166391095Y-81332677D01*
X166388990Y-81340529D01*
X166374500Y-81450598D01*
X166374500Y-81649403D01*
X166388988Y-81759463D01*
X166388991Y-81759472D01*
X166406260Y-81801164D01*
X166445721Y-81896429D01*
X166535964Y-82014036D01*
X166653571Y-82104279D01*
X166790528Y-82161009D01*
X166900599Y-82175500D01*
X167724400Y-82175499D01*
X167737039Y-82173835D01*
X167806073Y-82184600D01*
X167858329Y-82230980D01*
X167877215Y-82298249D01*
X167876164Y-82312952D01*
X167874500Y-82325596D01*
X167874500Y-83149403D01*
X167888988Y-83259463D01*
X167888991Y-83259472D01*
X167945721Y-83396429D01*
X168035964Y-83514036D01*
X168153571Y-83604279D01*
X168290528Y-83661009D01*
X168400599Y-83675500D01*
X168599400Y-83675499D01*
X168599401Y-83675499D01*
X168616087Y-83673302D01*
X168709472Y-83661009D01*
X168709475Y-83661007D01*
X168717326Y-83658905D01*
X168718210Y-83662207D01*
X168771925Y-83656392D01*
X168782514Y-83659501D01*
X168782674Y-83658905D01*
X168790524Y-83661008D01*
X168790526Y-83661008D01*
X168790528Y-83661009D01*
X168900599Y-83675500D01*
X169099400Y-83675499D01*
X169099401Y-83675499D01*
X169116087Y-83673302D01*
X169209472Y-83661009D01*
X169209475Y-83661007D01*
X169217326Y-83658905D01*
X169218210Y-83662207D01*
X169271925Y-83656392D01*
X169282514Y-83659501D01*
X169282674Y-83658905D01*
X169290524Y-83661008D01*
X169290526Y-83661008D01*
X169290528Y-83661009D01*
X169400599Y-83675500D01*
X169599400Y-83675499D01*
X169599401Y-83675499D01*
X169616087Y-83673302D01*
X169709472Y-83661009D01*
X169709475Y-83661007D01*
X169717326Y-83658905D01*
X169718210Y-83662207D01*
X169771925Y-83656392D01*
X169782514Y-83659501D01*
X169782674Y-83658905D01*
X169790524Y-83661008D01*
X169790526Y-83661008D01*
X169790528Y-83661009D01*
X169900599Y-83675500D01*
X170099400Y-83675499D01*
X170099403Y-83675499D01*
X170209463Y-83661011D01*
X170209467Y-83661009D01*
X170209472Y-83661009D01*
X170346429Y-83604279D01*
X170464036Y-83514036D01*
X170554279Y-83396429D01*
X170611009Y-83259472D01*
X170625500Y-83149401D01*
X170625499Y-82325600D01*
X170625498Y-82325596D01*
X170623835Y-82312960D01*
X170634601Y-82243925D01*
X170680981Y-82191669D01*
X170748249Y-82172784D01*
X170762959Y-82173836D01*
X170763945Y-82173965D01*
X170775599Y-82175500D01*
X171599400Y-82175499D01*
X171599403Y-82175499D01*
X171709463Y-82161011D01*
X171709466Y-82161009D01*
X171709472Y-82161009D01*
X171712058Y-82159938D01*
X171759508Y-82150500D01*
X172320943Y-82150500D01*
X172938001Y-82150500D01*
X173005040Y-82170185D01*
X173050795Y-82222989D01*
X173062001Y-82274500D01*
X173062001Y-82500018D01*
X173072500Y-82602796D01*
X173072501Y-82602799D01*
X173101913Y-82691557D01*
X173127686Y-82769334D01*
X173219788Y-82918656D01*
X173343844Y-83042712D01*
X173493166Y-83134814D01*
X173659703Y-83189999D01*
X173762491Y-83200500D01*
X174374901Y-83200499D01*
X174441940Y-83220183D01*
X174462582Y-83236818D01*
X175006284Y-83780520D01*
X175006286Y-83780521D01*
X175006290Y-83780524D01*
X175143209Y-83859573D01*
X175143216Y-83859577D01*
X175295943Y-83900501D01*
X175295945Y-83900501D01*
X175461654Y-83900501D01*
X175461670Y-83900500D01*
X176413331Y-83900500D01*
X176413347Y-83900501D01*
X176420943Y-83900501D01*
X176579054Y-83900501D01*
X176579057Y-83900501D01*
X176731785Y-83859577D01*
X176781904Y-83830639D01*
X176868716Y-83780520D01*
X176980520Y-83668716D01*
X176980520Y-83668714D01*
X176990728Y-83658507D01*
X176990730Y-83658504D01*
X177558506Y-83090728D01*
X177558511Y-83090724D01*
X177568714Y-83080520D01*
X177568716Y-83080520D01*
X177680520Y-82968716D01*
X177759577Y-82831784D01*
X177800500Y-82679057D01*
X177800500Y-71160943D01*
X177759577Y-71008216D01*
X177759577Y-71008215D01*
X177696686Y-70899285D01*
X177680520Y-70871284D01*
X177568716Y-70759480D01*
X177568715Y-70759479D01*
X177564385Y-70755149D01*
X177564374Y-70755139D01*
X173687946Y-66878711D01*
X180749500Y-66878711D01*
X180749500Y-67121288D01*
X180781161Y-67361785D01*
X180843947Y-67596104D01*
X180936773Y-67820205D01*
X180936776Y-67820212D01*
X181058064Y-68030289D01*
X181058066Y-68030292D01*
X181058067Y-68030293D01*
X181205733Y-68222736D01*
X181205739Y-68222743D01*
X181377256Y-68394260D01*
X181377262Y-68394265D01*
X181569711Y-68541936D01*
X181779788Y-68663224D01*
X182003900Y-68756054D01*
X182238211Y-68818838D01*
X182418586Y-68842584D01*
X182478711Y-68850500D01*
X182478712Y-68850500D01*
X182721289Y-68850500D01*
X182769388Y-68844167D01*
X182961789Y-68818838D01*
X183196100Y-68756054D01*
X183420212Y-68663224D01*
X183630289Y-68541936D01*
X183822738Y-68394265D01*
X183994265Y-68222738D01*
X184141936Y-68030289D01*
X184263224Y-67820212D01*
X184356054Y-67596100D01*
X184418838Y-67361789D01*
X184450500Y-67121288D01*
X184450500Y-66878712D01*
X184418838Y-66638211D01*
X184356054Y-66403900D01*
X184263224Y-66179788D01*
X184141936Y-65969711D01*
X184035339Y-65830791D01*
X183994266Y-65777263D01*
X183994260Y-65777256D01*
X183822743Y-65605739D01*
X183822736Y-65605733D01*
X183630293Y-65458067D01*
X183630292Y-65458066D01*
X183630289Y-65458064D01*
X183420212Y-65336776D01*
X183413930Y-65334174D01*
X183196104Y-65243947D01*
X182961785Y-65181161D01*
X182721289Y-65149500D01*
X182721288Y-65149500D01*
X182478712Y-65149500D01*
X182478711Y-65149500D01*
X182238214Y-65181161D01*
X182003895Y-65243947D01*
X181779794Y-65336773D01*
X181779785Y-65336777D01*
X181650871Y-65411206D01*
X181571622Y-65456961D01*
X181569706Y-65458067D01*
X181377263Y-65605733D01*
X181377256Y-65605739D01*
X181205739Y-65777256D01*
X181205733Y-65777263D01*
X181058067Y-65969706D01*
X180936777Y-66179785D01*
X180936773Y-66179794D01*
X180843947Y-66403895D01*
X180781161Y-66638214D01*
X180749500Y-66878711D01*
X173687946Y-66878711D01*
X173686319Y-66877084D01*
X173652834Y-66815761D01*
X173650000Y-66789403D01*
X173650000Y-65833012D01*
X173707007Y-65865925D01*
X173834174Y-65900000D01*
X173965826Y-65900000D01*
X174092993Y-65865925D01*
X174150000Y-65833012D01*
X174150000Y-66750000D01*
X174797828Y-66750000D01*
X174797844Y-66749999D01*
X174857372Y-66743598D01*
X174857379Y-66743596D01*
X174992086Y-66693354D01*
X174992093Y-66693350D01*
X175107187Y-66607190D01*
X175107190Y-66607187D01*
X175193350Y-66492093D01*
X175193354Y-66492086D01*
X175243596Y-66357379D01*
X175243598Y-66357372D01*
X175249999Y-66297844D01*
X175250000Y-66297827D01*
X175250000Y-65650000D01*
X174333012Y-65650000D01*
X174365925Y-65592993D01*
X174400000Y-65465826D01*
X174400000Y-65334174D01*
X174365925Y-65207007D01*
X174333012Y-65150000D01*
X175250000Y-65150000D01*
X175250000Y-64502172D01*
X175249999Y-64502155D01*
X175243598Y-64442627D01*
X175243596Y-64442620D01*
X175193354Y-64307913D01*
X175193350Y-64307906D01*
X175107190Y-64192812D01*
X174988241Y-64103766D01*
X174946371Y-64047832D01*
X174941387Y-63978141D01*
X174974873Y-63916818D01*
X175036196Y-63883334D01*
X175062553Y-63880500D01*
X185565500Y-63880500D01*
X185632539Y-63900185D01*
G37*
%TD.AperFunction*%
%TA.AperFunction,Conductor*%
G36*
X168324938Y-79361167D02*
G01*
X168336933Y-79362025D01*
X168355790Y-79376140D01*
X168376978Y-79386424D01*
X168383239Y-79396688D01*
X168392867Y-79403895D01*
X168408161Y-79430752D01*
X168412017Y-79440062D01*
X168438981Y-79505159D01*
X168445721Y-79521429D01*
X168527931Y-79628567D01*
X168553124Y-79693733D01*
X168553554Y-79704051D01*
X168553554Y-79750000D01*
X168724999Y-79921445D01*
X168809626Y-79836818D01*
X168870949Y-79803333D01*
X168897308Y-79800499D01*
X168900591Y-79800499D01*
X168900599Y-79800500D01*
X169099400Y-79800499D01*
X169099402Y-79800499D01*
X169128382Y-79796683D01*
X169159406Y-79792599D01*
X169165224Y-79806645D01*
X169193355Y-79834776D01*
X169230109Y-79850000D01*
X169269891Y-79850000D01*
X169306645Y-79834776D01*
X169334776Y-79806645D01*
X169340593Y-79792600D01*
X169400599Y-79800500D01*
X169599400Y-79800499D01*
X169602690Y-79800499D01*
X169669730Y-79820183D01*
X169690372Y-79836818D01*
X169774999Y-79921445D01*
X169859626Y-79836818D01*
X169920949Y-79803333D01*
X169947300Y-79800499D01*
X170099400Y-79800499D01*
X170099403Y-79800499D01*
X170206821Y-79786358D01*
X170215224Y-79806645D01*
X170243355Y-79834776D01*
X170280109Y-79850000D01*
X170319891Y-79850000D01*
X170356645Y-79834776D01*
X170384776Y-79806645D01*
X170400000Y-79769891D01*
X170400000Y-79730109D01*
X170386818Y-79698286D01*
X170454070Y-79646682D01*
X170519236Y-79621490D01*
X170587681Y-79635528D01*
X170637671Y-79684342D01*
X170643525Y-79696208D01*
X170685763Y-79794748D01*
X170687194Y-79806687D01*
X170692958Y-79817242D01*
X170691277Y-79840736D01*
X170694082Y-79864120D01*
X170688831Y-79874937D01*
X170687974Y-79886934D01*
X170673858Y-79905789D01*
X170663575Y-79926978D01*
X170653308Y-79933240D01*
X170646102Y-79942867D01*
X170619246Y-79958161D01*
X170528571Y-79995720D01*
X170528570Y-79995721D01*
X170421434Y-80077930D01*
X170356265Y-80103124D01*
X170345948Y-80103554D01*
X170300000Y-80103554D01*
X170128554Y-80275000D01*
X170213181Y-80359627D01*
X170246666Y-80420950D01*
X170249500Y-80447307D01*
X170249500Y-80649403D01*
X170257398Y-80709406D01*
X170243355Y-80715224D01*
X170215224Y-80743355D01*
X170200000Y-80780109D01*
X170200000Y-80819891D01*
X170215224Y-80856645D01*
X170243355Y-80884776D01*
X170257399Y-80890593D01*
X170249500Y-80950598D01*
X170249500Y-81152689D01*
X170229815Y-81219728D01*
X170213182Y-81240369D01*
X170128554Y-81324999D01*
X170213181Y-81409626D01*
X170227459Y-81435775D01*
X170243937Y-81460585D01*
X170245062Y-81468011D01*
X170246666Y-81470949D01*
X170249486Y-81495440D01*
X170249500Y-81496384D01*
X170249501Y-81649400D01*
X170252102Y-81669163D01*
X170252211Y-81676356D01*
X170244718Y-81703373D01*
X170240396Y-81731080D01*
X170235506Y-81736588D01*
X170233538Y-81743685D01*
X170212627Y-81762362D01*
X170194013Y-81783333D01*
X170186922Y-81785323D01*
X170181429Y-81790230D01*
X170153736Y-81794638D01*
X170126743Y-81802215D01*
X170112526Y-81801198D01*
X170112428Y-81801214D01*
X170112366Y-81801186D01*
X170112046Y-81801164D01*
X170099402Y-81799500D01*
X169947308Y-81799500D01*
X169880269Y-81779815D01*
X169859626Y-81763181D01*
X169775000Y-81678554D01*
X169690371Y-81763182D01*
X169629047Y-81796666D01*
X169602691Y-81799500D01*
X169400596Y-81799500D01*
X169340593Y-81807398D01*
X169334776Y-81793355D01*
X169306645Y-81765224D01*
X169269891Y-81750000D01*
X169230109Y-81750000D01*
X169193355Y-81765224D01*
X169165224Y-81793355D01*
X169159406Y-81807399D01*
X169099402Y-81799500D01*
X168897309Y-81799500D01*
X168830270Y-81779815D01*
X168809628Y-81763181D01*
X168725001Y-81678554D01*
X168725000Y-81678554D01*
X168640371Y-81763182D01*
X168614223Y-81777458D01*
X168589413Y-81793937D01*
X168581983Y-81795062D01*
X168579047Y-81796666D01*
X168554558Y-81799486D01*
X168553613Y-81799500D01*
X168400600Y-81799501D01*
X168380836Y-81802102D01*
X168373643Y-81802211D01*
X168346622Y-81794717D01*
X168318918Y-81790395D01*
X168313410Y-81785506D01*
X168306314Y-81783538D01*
X168287635Y-81762626D01*
X168266665Y-81744012D01*
X168264674Y-81736921D01*
X168259769Y-81731429D01*
X168255360Y-81703736D01*
X168247784Y-81676742D01*
X168248800Y-81662528D01*
X168248785Y-81662428D01*
X168248812Y-81662364D01*
X168248836Y-81662039D01*
X168250500Y-81649401D01*
X168250499Y-81497308D01*
X168270183Y-81430269D01*
X168286818Y-81409626D01*
X168371444Y-81325000D01*
X169078554Y-81325000D01*
X169250000Y-81496446D01*
X169421446Y-81325000D01*
X169250000Y-81153554D01*
X169078554Y-81325000D01*
X168371444Y-81325000D01*
X168371445Y-81324999D01*
X168286818Y-81240372D01*
X168253333Y-81179049D01*
X168250499Y-81152691D01*
X168250499Y-81149408D01*
X168250500Y-81149401D01*
X168250499Y-80950600D01*
X168242599Y-80890593D01*
X168256645Y-80884776D01*
X168284776Y-80856645D01*
X168300000Y-80819891D01*
X168300000Y-80800000D01*
X168553554Y-80800000D01*
X168725000Y-80971446D01*
X168896446Y-80800000D01*
X168876555Y-80780109D01*
X169150000Y-80780109D01*
X169150000Y-80819891D01*
X169165224Y-80856645D01*
X169193355Y-80884776D01*
X169230109Y-80900000D01*
X169269891Y-80900000D01*
X169306645Y-80884776D01*
X169334776Y-80856645D01*
X169350000Y-80819891D01*
X169350000Y-80800000D01*
X169603554Y-80800000D01*
X169775000Y-80971446D01*
X169946446Y-80800000D01*
X169775000Y-80628554D01*
X169603554Y-80800000D01*
X169350000Y-80800000D01*
X169350000Y-80780109D01*
X169334776Y-80743355D01*
X169306645Y-80715224D01*
X169269891Y-80700000D01*
X169230109Y-80700000D01*
X169193355Y-80715224D01*
X169165224Y-80743355D01*
X169150000Y-80780109D01*
X168876555Y-80780109D01*
X168725000Y-80628554D01*
X168553554Y-80800000D01*
X168300000Y-80800000D01*
X168300000Y-80780109D01*
X168284776Y-80743355D01*
X168256645Y-80715224D01*
X168242600Y-80709406D01*
X168250500Y-80649401D01*
X168250499Y-80450600D01*
X168250499Y-80450599D01*
X168250499Y-80447310D01*
X168270183Y-80380270D01*
X168286818Y-80359627D01*
X168371444Y-80275000D01*
X169078554Y-80275000D01*
X169250000Y-80446446D01*
X169421446Y-80275000D01*
X169250000Y-80103554D01*
X169078554Y-80275000D01*
X168371444Y-80275000D01*
X168371445Y-80274999D01*
X168286818Y-80190372D01*
X168253333Y-80129049D01*
X168250499Y-80102698D01*
X168250499Y-79950600D01*
X168250499Y-79950596D01*
X168236358Y-79843178D01*
X168256645Y-79834776D01*
X168284776Y-79806645D01*
X168300000Y-79769891D01*
X168300000Y-79730109D01*
X168284776Y-79693355D01*
X168256645Y-79665224D01*
X168219891Y-79650000D01*
X168180109Y-79650000D01*
X168148286Y-79663181D01*
X168096682Y-79595929D01*
X168071490Y-79530764D01*
X168085528Y-79462319D01*
X168134342Y-79412329D01*
X168146207Y-79406475D01*
X168244748Y-79364236D01*
X168256686Y-79362804D01*
X168267241Y-79357041D01*
X168290736Y-79358721D01*
X168314121Y-79355917D01*
X168324938Y-79361167D01*
G37*
%TD.AperFunction*%
%TA.AperFunction,Conductor*%
G36*
X169220671Y-66702302D02*
G01*
X169248362Y-66701511D01*
X169255364Y-66705531D01*
X169262652Y-66706210D01*
X169279476Y-66719376D01*
X169304522Y-66733757D01*
X173450681Y-70879916D01*
X173484166Y-70941239D01*
X173487000Y-70967597D01*
X173487000Y-73741267D01*
X173467315Y-73808306D01*
X173414511Y-73854061D01*
X173345353Y-73864005D01*
X173323996Y-73858973D01*
X173177697Y-73810494D01*
X173177690Y-73810493D01*
X173074986Y-73800000D01*
X172950000Y-73800000D01*
X172950000Y-76599999D01*
X173074972Y-76599999D01*
X173074986Y-76599998D01*
X173177695Y-76589506D01*
X173323995Y-76541026D01*
X173393824Y-76538624D01*
X173453866Y-76574355D01*
X173485059Y-76636875D01*
X173487000Y-76658732D01*
X173487000Y-78707491D01*
X173467315Y-78774530D01*
X173428098Y-78813029D01*
X173356344Y-78857287D01*
X173232289Y-78981342D01*
X173140187Y-79130663D01*
X173140186Y-79130666D01*
X173085001Y-79297203D01*
X173085001Y-79297204D01*
X173085000Y-79297204D01*
X173074500Y-79399983D01*
X173074500Y-80012401D01*
X173054815Y-80079440D01*
X173038185Y-80100077D01*
X172725082Y-80413182D01*
X172663761Y-80446666D01*
X172637403Y-80449500D01*
X172234101Y-80449500D01*
X172205170Y-80441005D01*
X172175647Y-80434858D01*
X172171984Y-80431260D01*
X172167062Y-80429815D01*
X172147320Y-80407032D01*
X172125803Y-80385895D01*
X172123822Y-80379913D01*
X172121307Y-80377011D01*
X172113175Y-80352938D01*
X172111906Y-80347349D01*
X172111009Y-80340528D01*
X172109572Y-80337059D01*
X172107241Y-80326785D01*
X172108789Y-80302036D01*
X172106128Y-80277382D01*
X172109147Y-80267389D01*
X172108418Y-80267194D01*
X172110521Y-80259342D01*
X172121626Y-80175000D01*
X172093506Y-80175000D01*
X172089854Y-80173927D01*
X172086146Y-80174781D01*
X172056596Y-80164162D01*
X172026467Y-80155315D01*
X172022933Y-80152065D01*
X172020393Y-80151152D01*
X171995138Y-80126497D01*
X171993603Y-80124497D01*
X171968402Y-80059331D01*
X171982433Y-79990884D01*
X172031241Y-79940889D01*
X172091971Y-79925000D01*
X172121626Y-79925000D01*
X172110521Y-79840659D01*
X172110521Y-79840657D01*
X172053843Y-79703824D01*
X171963679Y-79586320D01*
X171846175Y-79496156D01*
X171709341Y-79439478D01*
X171599377Y-79425000D01*
X171312500Y-79425000D01*
X171312500Y-79800500D01*
X171309949Y-79809185D01*
X171311238Y-79818147D01*
X171300259Y-79842187D01*
X171292815Y-79867539D01*
X171285974Y-79873466D01*
X171282213Y-79881703D01*
X171259978Y-79895992D01*
X171240011Y-79913294D01*
X171229496Y-79915581D01*
X171223435Y-79919477D01*
X171188500Y-79924500D01*
X171186500Y-79924500D01*
X171119461Y-79904815D01*
X171073706Y-79852011D01*
X171062500Y-79800500D01*
X171062500Y-79425000D01*
X170978553Y-79425000D01*
X170763260Y-79640293D01*
X170701937Y-79673778D01*
X170632245Y-79668794D01*
X170576312Y-79626922D01*
X170551895Y-79561458D01*
X170561018Y-79505159D01*
X170611009Y-79384472D01*
X170625500Y-79274401D01*
X170625499Y-78450600D01*
X170625499Y-78450592D01*
X170625234Y-78446550D01*
X170627086Y-78446428D01*
X170636647Y-78384838D01*
X170682990Y-78332550D01*
X170709859Y-78319902D01*
X170733693Y-78312005D01*
X170733697Y-78312003D01*
X170734444Y-78311542D01*
X170878044Y-78222968D01*
X170887668Y-78213343D01*
X170948987Y-78179856D01*
X171018679Y-78184835D01*
X171063034Y-78213339D01*
X171072267Y-78222572D01*
X171072271Y-78222575D01*
X171216507Y-78311542D01*
X171216518Y-78311547D01*
X171377393Y-78364855D01*
X171476683Y-78374999D01*
X172000000Y-78374999D01*
X172023308Y-78374999D01*
X172023322Y-78374998D01*
X172122607Y-78364855D01*
X172283481Y-78311547D01*
X172283492Y-78311542D01*
X172427728Y-78222575D01*
X172427732Y-78222572D01*
X172547572Y-78102732D01*
X172547575Y-78102728D01*
X172636542Y-77958492D01*
X172636547Y-77958481D01*
X172689855Y-77797606D01*
X172699999Y-77698322D01*
X172700000Y-77698309D01*
X172700000Y-77650000D01*
X172000000Y-77650000D01*
X172000000Y-78374999D01*
X171476683Y-78374999D01*
X171500000Y-78374998D01*
X171500000Y-76424999D01*
X171476693Y-76425000D01*
X171476674Y-76425001D01*
X171377392Y-76435144D01*
X171216518Y-76488452D01*
X171216507Y-76488457D01*
X171072271Y-76577424D01*
X171072265Y-76577428D01*
X171063031Y-76586663D01*
X171001707Y-76620146D01*
X170932015Y-76615159D01*
X170908062Y-76603133D01*
X170896994Y-76595982D01*
X170878044Y-76577032D01*
X170733697Y-76487997D01*
X170725805Y-76485382D01*
X170712728Y-76476933D01*
X170695256Y-76456670D01*
X170675177Y-76438992D01*
X170672788Y-76430614D01*
X170667101Y-76424018D01*
X170663357Y-76397529D01*
X170656023Y-76371800D01*
X170658503Y-76363182D01*
X170657324Y-76354836D01*
X170666910Y-76333977D01*
X170674479Y-76307684D01*
X170759814Y-76169334D01*
X170814999Y-76002797D01*
X170825500Y-75900009D01*
X170825500Y-75899986D01*
X171625001Y-75899986D01*
X171635494Y-76002697D01*
X171690641Y-76169119D01*
X171690643Y-76169124D01*
X171768285Y-76295000D01*
X171876000Y-76295000D01*
X171943039Y-76314685D01*
X171988794Y-76367489D01*
X172000000Y-76419000D01*
X172000000Y-77150000D01*
X172699999Y-77150000D01*
X172699999Y-77101692D01*
X172699998Y-77101677D01*
X172689855Y-77002392D01*
X172636547Y-76841518D01*
X172636542Y-76841507D01*
X172567763Y-76729999D01*
X172560839Y-76726135D01*
X172506961Y-76710315D01*
X172461206Y-76657511D01*
X172450000Y-76606000D01*
X172450000Y-75450000D01*
X171625001Y-75450000D01*
X171625001Y-75899986D01*
X170825500Y-75899986D01*
X170825499Y-74950000D01*
X170825499Y-74500013D01*
X171625000Y-74500013D01*
X171625000Y-74950000D01*
X172450000Y-74950000D01*
X172450000Y-73800000D01*
X172325027Y-73800000D01*
X172325012Y-73800001D01*
X172222302Y-73810494D01*
X172055880Y-73865641D01*
X172055875Y-73865643D01*
X171906654Y-73957684D01*
X171782684Y-74081654D01*
X171690643Y-74230875D01*
X171690641Y-74230880D01*
X171635494Y-74397302D01*
X171635493Y-74397309D01*
X171625000Y-74500013D01*
X170825499Y-74500013D01*
X170825499Y-74499998D01*
X170825498Y-74499981D01*
X170814999Y-74397203D01*
X170814998Y-74397200D01*
X170759814Y-74230666D01*
X170667712Y-74081344D01*
X170543656Y-73957288D01*
X170538549Y-73952181D01*
X170540435Y-73950294D01*
X170507212Y-73903375D01*
X170500500Y-73863132D01*
X170500500Y-68796079D01*
X170471659Y-68651092D01*
X170471658Y-68651091D01*
X170471658Y-68651087D01*
X170471656Y-68651082D01*
X170415086Y-68514509D01*
X170415085Y-68514507D01*
X170382186Y-68465270D01*
X170382185Y-68465268D01*
X170332956Y-68391589D01*
X170332952Y-68391584D01*
X168896003Y-66954635D01*
X168891026Y-66945521D01*
X168882849Y-66939122D01*
X168874568Y-66915380D01*
X168862518Y-66893312D01*
X168863258Y-66882954D01*
X168859839Y-66873150D01*
X168865708Y-66848701D01*
X168867502Y-66823620D01*
X168873725Y-66815306D01*
X168876149Y-66805211D01*
X168894305Y-66787815D01*
X168909374Y-66767687D01*
X168920442Y-66762774D01*
X168926600Y-66756875D01*
X168954150Y-66747814D01*
X168959926Y-66745251D01*
X168962069Y-66744832D01*
X169136243Y-66717246D01*
X169185697Y-66701176D01*
X169193083Y-66699735D01*
X169220671Y-66702302D01*
G37*
%TD.AperFunction*%
%TD*%
M02*
