%TF.GenerationSoftware,KiCad,Pcbnew,9.0.3-9.0.3-0~ubuntu24.04.1*%
%TF.CreationDate,2025-12-01T14:44:41+02:00*%
%TF.ProjectId,Induction_Meassure,496e6475-6374-4696-9f6e-5f4d65617373,rev?*%
%TF.SameCoordinates,Original*%
%TF.FileFunction,Copper,L2,Bot*%
%TF.FilePolarity,Positive*%
%FSLAX46Y46*%
G04 Gerber Fmt 4.6, Leading zero omitted, Abs format (unit mm)*
G04 Created by KiCad (PCBNEW 9.0.3-9.0.3-0~ubuntu24.04.1) date 2025-12-01 14:44:41*
%MOMM*%
%LPD*%
G01*
G04 APERTURE LIST*
%TA.AperFunction,HeatsinkPad*%
%ADD10C,0.500000*%
%TD*%
%TA.AperFunction,HeatsinkPad*%
%ADD11R,2.600000X2.600000*%
%TD*%
%TA.AperFunction,ComponentPad*%
%ADD12R,1.700000X1.700000*%
%TD*%
%TA.AperFunction,ComponentPad*%
%ADD13C,1.700000*%
%TD*%
%TA.AperFunction,ViaPad*%
%ADD14C,0.600000*%
%TD*%
%TA.AperFunction,Conductor*%
%ADD15C,0.200000*%
%TD*%
G04 APERTURE END LIST*
D10*
%TO.P,U1,17,GND*%
%TO.N,GND*%
X170300000Y-81850000D03*
X170300000Y-80800000D03*
X170300000Y-79750000D03*
X169250000Y-81850000D03*
X169250000Y-80800000D03*
D11*
X169250000Y-80800000D03*
D10*
X169250000Y-79750000D03*
X168200000Y-81850000D03*
X168200000Y-80800000D03*
X168200000Y-79750000D03*
%TD*%
D12*
%TO.P,J2,1,Pin_1*%
%TO.N,Net-(J2-Pin_1)*%
X152900000Y-78900000D03*
D13*
%TO.P,J2,2,Pin_2*%
%TO.N,Net-(J2-Pin_2)*%
X152900000Y-81440000D03*
%TD*%
D12*
%TO.P,J1,1,Pin_1*%
%TO.N,GND*%
X173900000Y-65400000D03*
D13*
%TO.P,J1,2,Pin_2*%
%TO.N,Net-(J1-Pin_2)*%
X171360000Y-65400000D03*
%TO.P,J1,3,Pin_3*%
%TO.N,Net-(J1-Pin_3)*%
X168820000Y-65400000D03*
%TO.P,J1,4,Pin_4*%
%TO.N,Net-(J1-Pin_4)*%
X166280000Y-65400000D03*
%TD*%
D14*
%TO.N,GND*%
X172700000Y-73700000D03*
X173200000Y-77400000D03*
%TO.N,Net-(J1-Pin_4)*%
X175900000Y-80900000D03*
X169750000Y-76600000D03*
%TD*%
D15*
%TO.N,Net-(J1-Pin_4)*%
X174900000Y-79900000D02*
X172700000Y-79900000D01*
X172700000Y-79900000D02*
X169750000Y-76950000D01*
X175900000Y-80900000D02*
X174900000Y-79900000D01*
X169750000Y-76950000D02*
X169750000Y-76600000D01*
%TD*%
%TA.AperFunction,Conductor*%
%TO.N,GND*%
G36*
X165870366Y-63900185D02*
G01*
X165916121Y-63952989D01*
X165926065Y-64022147D01*
X165897040Y-64085703D01*
X165841645Y-64122430D01*
X165761588Y-64148443D01*
X165761585Y-64148444D01*
X165572179Y-64244951D01*
X165400213Y-64369890D01*
X165249890Y-64520213D01*
X165124951Y-64692179D01*
X165028444Y-64881585D01*
X164962753Y-65083760D01*
X164947326Y-65181162D01*
X164929500Y-65293713D01*
X164929500Y-65506287D01*
X164962754Y-65716243D01*
X164982580Y-65777262D01*
X165028444Y-65918414D01*
X165124951Y-66107820D01*
X165249890Y-66279786D01*
X165400213Y-66430109D01*
X165572179Y-66555048D01*
X165572181Y-66555049D01*
X165572184Y-66555051D01*
X165761588Y-66651557D01*
X165963757Y-66717246D01*
X166173713Y-66750500D01*
X166173714Y-66750500D01*
X166386286Y-66750500D01*
X166386287Y-66750500D01*
X166596243Y-66717246D01*
X166798412Y-66651557D01*
X166987816Y-66555051D01*
X167074478Y-66492088D01*
X167159786Y-66430109D01*
X167159788Y-66430106D01*
X167159792Y-66430104D01*
X167310104Y-66279792D01*
X167310106Y-66279788D01*
X167310109Y-66279786D01*
X167435048Y-66107820D01*
X167435047Y-66107820D01*
X167435051Y-66107816D01*
X167439514Y-66099054D01*
X167487488Y-66048259D01*
X167555308Y-66031463D01*
X167621444Y-66053999D01*
X167660486Y-66099056D01*
X167664951Y-66107820D01*
X167789890Y-66279786D01*
X167940213Y-66430109D01*
X168112179Y-66555048D01*
X168112181Y-66555049D01*
X168112184Y-66555051D01*
X168301588Y-66651557D01*
X168503757Y-66717246D01*
X168713713Y-66750500D01*
X168713714Y-66750500D01*
X168926286Y-66750500D01*
X168926287Y-66750500D01*
X169136243Y-66717246D01*
X169338412Y-66651557D01*
X169527816Y-66555051D01*
X169614478Y-66492088D01*
X169699786Y-66430109D01*
X169699788Y-66430106D01*
X169699792Y-66430104D01*
X169850104Y-66279792D01*
X169850106Y-66279788D01*
X169850109Y-66279786D01*
X169975048Y-66107820D01*
X169975047Y-66107820D01*
X169975051Y-66107816D01*
X169979514Y-66099054D01*
X170027488Y-66048259D01*
X170095308Y-66031463D01*
X170161444Y-66053999D01*
X170200486Y-66099056D01*
X170204951Y-66107820D01*
X170329890Y-66279786D01*
X170480213Y-66430109D01*
X170652179Y-66555048D01*
X170652181Y-66555049D01*
X170652184Y-66555051D01*
X170841588Y-66651557D01*
X171043757Y-66717246D01*
X171253713Y-66750500D01*
X171253714Y-66750500D01*
X171466286Y-66750500D01*
X171466287Y-66750500D01*
X171676243Y-66717246D01*
X171878412Y-66651557D01*
X172067816Y-66555051D01*
X172154478Y-66492088D01*
X172239784Y-66430110D01*
X172239784Y-66430109D01*
X172239792Y-66430104D01*
X172353717Y-66316178D01*
X172415036Y-66282696D01*
X172484728Y-66287680D01*
X172540662Y-66329551D01*
X172557577Y-66360528D01*
X172606646Y-66492088D01*
X172606649Y-66492093D01*
X172692809Y-66607187D01*
X172692812Y-66607190D01*
X172807906Y-66693350D01*
X172807913Y-66693354D01*
X172942620Y-66743596D01*
X172942627Y-66743598D01*
X173002155Y-66749999D01*
X173002172Y-66750000D01*
X173650000Y-66750000D01*
X173650000Y-65833012D01*
X173707007Y-65865925D01*
X173834174Y-65900000D01*
X173965826Y-65900000D01*
X174092993Y-65865925D01*
X174150000Y-65833012D01*
X174150000Y-66750000D01*
X174797828Y-66750000D01*
X174797844Y-66749999D01*
X174857372Y-66743598D01*
X174857379Y-66743596D01*
X174992086Y-66693354D01*
X174992093Y-66693350D01*
X175107187Y-66607190D01*
X175107190Y-66607187D01*
X175193350Y-66492093D01*
X175193354Y-66492086D01*
X175243596Y-66357379D01*
X175243598Y-66357372D01*
X175249999Y-66297844D01*
X175250000Y-66297827D01*
X175250000Y-65650000D01*
X174333012Y-65650000D01*
X174365925Y-65592993D01*
X174400000Y-65465826D01*
X174400000Y-65334174D01*
X174365925Y-65207007D01*
X174333012Y-65150000D01*
X175250000Y-65150000D01*
X175250000Y-64502172D01*
X175249999Y-64502155D01*
X175243598Y-64442627D01*
X175243596Y-64442620D01*
X175193354Y-64307913D01*
X175193350Y-64307906D01*
X175107190Y-64192812D01*
X174988241Y-64103766D01*
X174946371Y-64047832D01*
X174941387Y-63978141D01*
X174974873Y-63916818D01*
X175036196Y-63883334D01*
X175062553Y-63880500D01*
X185565500Y-63880500D01*
X185632539Y-63900185D01*
X185678294Y-63952989D01*
X185689500Y-64004500D01*
X185689500Y-97755500D01*
X185669815Y-97822539D01*
X185617011Y-97868294D01*
X185565500Y-97879500D01*
X151814500Y-97879500D01*
X151747461Y-97859815D01*
X151701706Y-97807011D01*
X151690500Y-97755500D01*
X151690500Y-94578711D01*
X152949500Y-94578711D01*
X152949500Y-94821288D01*
X152981161Y-95061785D01*
X153043947Y-95296104D01*
X153085367Y-95396100D01*
X153136776Y-95520212D01*
X153258064Y-95730289D01*
X153258066Y-95730292D01*
X153258067Y-95730293D01*
X153405733Y-95922736D01*
X153405739Y-95922743D01*
X153577256Y-96094260D01*
X153577262Y-96094265D01*
X153769711Y-96241936D01*
X153979788Y-96363224D01*
X154203900Y-96456054D01*
X154438211Y-96518838D01*
X154618586Y-96542584D01*
X154678711Y-96550500D01*
X154678712Y-96550500D01*
X154921289Y-96550500D01*
X154969388Y-96544167D01*
X155161789Y-96518838D01*
X155396100Y-96456054D01*
X155620212Y-96363224D01*
X155830289Y-96241936D01*
X156022738Y-96094265D01*
X156194265Y-95922738D01*
X156341936Y-95730289D01*
X156463224Y-95520212D01*
X156556054Y-95296100D01*
X156618838Y-95061789D01*
X156650500Y-94821288D01*
X156650500Y-94678711D01*
X180749500Y-94678711D01*
X180749500Y-94921288D01*
X180781161Y-95161785D01*
X180843947Y-95396104D01*
X180936773Y-95620205D01*
X180936776Y-95620212D01*
X181058064Y-95830289D01*
X181058066Y-95830292D01*
X181058067Y-95830293D01*
X181205733Y-96022736D01*
X181205739Y-96022743D01*
X181377256Y-96194260D01*
X181377262Y-96194265D01*
X181569711Y-96341936D01*
X181779788Y-96463224D01*
X182003900Y-96556054D01*
X182238211Y-96618838D01*
X182418586Y-96642584D01*
X182478711Y-96650500D01*
X182478712Y-96650500D01*
X182721289Y-96650500D01*
X182769388Y-96644167D01*
X182961789Y-96618838D01*
X183196100Y-96556054D01*
X183420212Y-96463224D01*
X183630289Y-96341936D01*
X183822738Y-96194265D01*
X183994265Y-96022738D01*
X184141936Y-95830289D01*
X184263224Y-95620212D01*
X184356054Y-95396100D01*
X184418838Y-95161789D01*
X184450500Y-94921288D01*
X184450500Y-94678712D01*
X184418838Y-94438211D01*
X184356054Y-94203900D01*
X184263224Y-93979788D01*
X184141936Y-93769711D01*
X184081018Y-93690321D01*
X183994266Y-93577263D01*
X183994260Y-93577256D01*
X183822743Y-93405739D01*
X183822736Y-93405733D01*
X183630293Y-93258067D01*
X183630292Y-93258066D01*
X183630289Y-93258064D01*
X183420212Y-93136776D01*
X183420205Y-93136773D01*
X183196104Y-93043947D01*
X182961785Y-92981161D01*
X182721289Y-92949500D01*
X182721288Y-92949500D01*
X182478712Y-92949500D01*
X182478711Y-92949500D01*
X182238214Y-92981161D01*
X182003895Y-93043947D01*
X181779794Y-93136773D01*
X181779785Y-93136777D01*
X181569706Y-93258067D01*
X181377263Y-93405733D01*
X181377256Y-93405739D01*
X181205739Y-93577256D01*
X181205733Y-93577263D01*
X181058067Y-93769706D01*
X180936777Y-93979785D01*
X180936773Y-93979794D01*
X180843947Y-94203895D01*
X180781161Y-94438214D01*
X180749500Y-94678711D01*
X156650500Y-94678711D01*
X156650500Y-94578712D01*
X156618838Y-94338211D01*
X156556054Y-94103900D01*
X156463224Y-93879788D01*
X156341936Y-93669711D01*
X156194265Y-93477262D01*
X156194260Y-93477256D01*
X156022743Y-93305739D01*
X156022736Y-93305733D01*
X155830293Y-93158067D01*
X155830292Y-93158066D01*
X155830289Y-93158064D01*
X155620212Y-93036776D01*
X155620205Y-93036773D01*
X155396104Y-92943947D01*
X155161785Y-92881161D01*
X154921289Y-92849500D01*
X154921288Y-92849500D01*
X154678712Y-92849500D01*
X154678711Y-92849500D01*
X154438214Y-92881161D01*
X154203895Y-92943947D01*
X153979794Y-93036773D01*
X153979785Y-93036777D01*
X153769706Y-93158067D01*
X153577263Y-93305733D01*
X153577256Y-93305739D01*
X153405739Y-93477256D01*
X153405733Y-93477263D01*
X153258067Y-93669706D01*
X153136777Y-93879785D01*
X153136773Y-93879794D01*
X153043947Y-94103895D01*
X152981161Y-94338214D01*
X152949500Y-94578711D01*
X151690500Y-94578711D01*
X151690500Y-82439758D01*
X151710185Y-82372719D01*
X151762989Y-82326964D01*
X151832147Y-82317020D01*
X151895703Y-82346045D01*
X151902181Y-82352077D01*
X152020213Y-82470109D01*
X152192179Y-82595048D01*
X152192181Y-82595049D01*
X152192184Y-82595051D01*
X152381588Y-82691557D01*
X152583757Y-82757246D01*
X152793713Y-82790500D01*
X152793714Y-82790500D01*
X153006286Y-82790500D01*
X153006287Y-82790500D01*
X153216243Y-82757246D01*
X153418412Y-82691557D01*
X153607816Y-82595051D01*
X153640679Y-82571175D01*
X153700687Y-82527577D01*
X167875975Y-82527577D01*
X167981236Y-82571178D01*
X167981240Y-82571179D01*
X168126126Y-82599999D01*
X168126129Y-82600000D01*
X168273871Y-82600000D01*
X168273873Y-82599999D01*
X168418760Y-82571179D01*
X168418775Y-82571175D01*
X168524024Y-82527578D01*
X168524024Y-82527577D01*
X168925975Y-82527577D01*
X169031236Y-82571178D01*
X169031240Y-82571179D01*
X169176126Y-82599999D01*
X169176129Y-82600000D01*
X169323871Y-82600000D01*
X169323873Y-82599999D01*
X169468760Y-82571179D01*
X169468775Y-82571175D01*
X169574024Y-82527578D01*
X169574024Y-82527577D01*
X169975975Y-82527577D01*
X170081236Y-82571178D01*
X170081240Y-82571179D01*
X170226126Y-82599999D01*
X170226129Y-82600000D01*
X170373871Y-82600000D01*
X170373873Y-82599999D01*
X170518760Y-82571179D01*
X170518775Y-82571175D01*
X170624024Y-82527578D01*
X170624024Y-82527577D01*
X170300001Y-82203554D01*
X170300000Y-82203554D01*
X169975975Y-82527577D01*
X169574024Y-82527577D01*
X169250001Y-82203554D01*
X169250000Y-82203554D01*
X168925975Y-82527577D01*
X168524024Y-82527577D01*
X168200001Y-82203554D01*
X168200000Y-82203554D01*
X167875975Y-82527577D01*
X153700687Y-82527577D01*
X153779786Y-82470109D01*
X153779788Y-82470106D01*
X153779792Y-82470104D01*
X153930104Y-82319792D01*
X153930106Y-82319788D01*
X153930109Y-82319786D01*
X154055048Y-82147820D01*
X154055047Y-82147820D01*
X154055051Y-82147816D01*
X154151557Y-81958412D01*
X154210786Y-81776126D01*
X167450000Y-81776126D01*
X167450000Y-81923873D01*
X167478820Y-82068759D01*
X167478822Y-82068767D01*
X167522421Y-82174024D01*
X167846446Y-81850000D01*
X167846446Y-81849999D01*
X167826556Y-81830109D01*
X168100000Y-81830109D01*
X168100000Y-81869891D01*
X168115224Y-81906645D01*
X168143355Y-81934776D01*
X168180109Y-81950000D01*
X168219891Y-81950000D01*
X168256645Y-81934776D01*
X168284776Y-81906645D01*
X168300000Y-81869891D01*
X168300000Y-81850000D01*
X168553554Y-81850000D01*
X168725000Y-82021446D01*
X168896446Y-81850000D01*
X168876555Y-81830109D01*
X169150000Y-81830109D01*
X169150000Y-81869891D01*
X169165224Y-81906645D01*
X169193355Y-81934776D01*
X169230109Y-81950000D01*
X169269891Y-81950000D01*
X169306645Y-81934776D01*
X169334776Y-81906645D01*
X169350000Y-81869891D01*
X169350000Y-81850000D01*
X169603554Y-81850000D01*
X169775000Y-82021446D01*
X169946446Y-81850000D01*
X169926555Y-81830109D01*
X170200000Y-81830109D01*
X170200000Y-81869891D01*
X170215224Y-81906645D01*
X170243355Y-81934776D01*
X170280109Y-81950000D01*
X170319891Y-81950000D01*
X170356645Y-81934776D01*
X170384776Y-81906645D01*
X170400000Y-81869891D01*
X170400000Y-81849999D01*
X170653554Y-81849999D01*
X170653554Y-81850001D01*
X170977577Y-82174024D01*
X170977578Y-82174024D01*
X171021175Y-82068775D01*
X171021179Y-82068760D01*
X171049999Y-81923873D01*
X171050000Y-81923871D01*
X171050000Y-81776128D01*
X171049999Y-81776126D01*
X171021179Y-81631240D01*
X171021178Y-81631236D01*
X170977577Y-81525975D01*
X170653554Y-81849999D01*
X170400000Y-81849999D01*
X170400000Y-81830109D01*
X170384776Y-81793355D01*
X170356645Y-81765224D01*
X170319891Y-81750000D01*
X170280109Y-81750000D01*
X170243355Y-81765224D01*
X170215224Y-81793355D01*
X170200000Y-81830109D01*
X169926555Y-81830109D01*
X169775000Y-81678554D01*
X169603554Y-81850000D01*
X169350000Y-81850000D01*
X169350000Y-81830109D01*
X169334776Y-81793355D01*
X169306645Y-81765224D01*
X169269891Y-81750000D01*
X169230109Y-81750000D01*
X169193355Y-81765224D01*
X169165224Y-81793355D01*
X169150000Y-81830109D01*
X168876555Y-81830109D01*
X168725000Y-81678554D01*
X168553554Y-81850000D01*
X168300000Y-81850000D01*
X168300000Y-81830109D01*
X168284776Y-81793355D01*
X168256645Y-81765224D01*
X168219891Y-81750000D01*
X168180109Y-81750000D01*
X168143355Y-81765224D01*
X168115224Y-81793355D01*
X168100000Y-81830109D01*
X167826556Y-81830109D01*
X167522421Y-81525974D01*
X167522420Y-81525974D01*
X167478823Y-81631228D01*
X167478820Y-81631240D01*
X167450000Y-81776126D01*
X154210786Y-81776126D01*
X154217246Y-81756243D01*
X154250500Y-81546287D01*
X154250500Y-81333713D01*
X154249120Y-81325000D01*
X168028554Y-81325000D01*
X168200000Y-81496446D01*
X168371446Y-81325000D01*
X169078554Y-81325000D01*
X169250000Y-81496446D01*
X169421446Y-81325000D01*
X170128554Y-81325000D01*
X170300000Y-81496446D01*
X170471446Y-81325000D01*
X170300000Y-81153554D01*
X170128554Y-81325000D01*
X169421446Y-81325000D01*
X169250000Y-81153554D01*
X169078554Y-81325000D01*
X168371446Y-81325000D01*
X168200000Y-81153554D01*
X168028554Y-81325000D01*
X154249120Y-81325000D01*
X154217246Y-81123757D01*
X154151557Y-80921588D01*
X154055051Y-80732184D01*
X154055050Y-80732182D01*
X154050650Y-80726126D01*
X167450000Y-80726126D01*
X167450000Y-80873873D01*
X167478820Y-81018759D01*
X167478822Y-81018767D01*
X167522421Y-81124024D01*
X167846446Y-80800000D01*
X167846446Y-80799999D01*
X167826556Y-80780109D01*
X168100000Y-80780109D01*
X168100000Y-80819891D01*
X168115224Y-80856645D01*
X168143355Y-80884776D01*
X168180109Y-80900000D01*
X168219891Y-80900000D01*
X168256645Y-80884776D01*
X168284776Y-80856645D01*
X168300000Y-80819891D01*
X168300000Y-80800000D01*
X168553554Y-80800000D01*
X168725000Y-80971446D01*
X168896446Y-80800000D01*
X168876555Y-80780109D01*
X169150000Y-80780109D01*
X169150000Y-80819891D01*
X169165224Y-80856645D01*
X169193355Y-80884776D01*
X169230109Y-80900000D01*
X169269891Y-80900000D01*
X169306645Y-80884776D01*
X169334776Y-80856645D01*
X169350000Y-80819891D01*
X169350000Y-80800000D01*
X169603554Y-80800000D01*
X169775000Y-80971446D01*
X169946446Y-80800000D01*
X169926555Y-80780109D01*
X170200000Y-80780109D01*
X170200000Y-80819891D01*
X170215224Y-80856645D01*
X170243355Y-80884776D01*
X170280109Y-80900000D01*
X170319891Y-80900000D01*
X170356645Y-80884776D01*
X170384776Y-80856645D01*
X170400000Y-80819891D01*
X170400000Y-80799999D01*
X170653554Y-80799999D01*
X170653554Y-80800001D01*
X170977577Y-81124024D01*
X170977578Y-81124024D01*
X171021175Y-81018775D01*
X171021179Y-81018760D01*
X171049999Y-80873873D01*
X171050000Y-80873871D01*
X171050000Y-80726128D01*
X171049999Y-80726126D01*
X171021179Y-80581240D01*
X171021178Y-80581236D01*
X170977577Y-80475975D01*
X170653554Y-80799999D01*
X170400000Y-80799999D01*
X170400000Y-80780109D01*
X170384776Y-80743355D01*
X170356645Y-80715224D01*
X170319891Y-80700000D01*
X170280109Y-80700000D01*
X170243355Y-80715224D01*
X170215224Y-80743355D01*
X170200000Y-80780109D01*
X169926555Y-80780109D01*
X169775000Y-80628554D01*
X169603554Y-80800000D01*
X169350000Y-80800000D01*
X169350000Y-80780109D01*
X169334776Y-80743355D01*
X169306645Y-80715224D01*
X169269891Y-80700000D01*
X169230109Y-80700000D01*
X169193355Y-80715224D01*
X169165224Y-80743355D01*
X169150000Y-80780109D01*
X168876555Y-80780109D01*
X168725000Y-80628554D01*
X168553554Y-80800000D01*
X168300000Y-80800000D01*
X168300000Y-80780109D01*
X168284776Y-80743355D01*
X168256645Y-80715224D01*
X168219891Y-80700000D01*
X168180109Y-80700000D01*
X168143355Y-80715224D01*
X168115224Y-80743355D01*
X168100000Y-80780109D01*
X167826556Y-80780109D01*
X167522421Y-80475974D01*
X167522420Y-80475974D01*
X167478823Y-80581228D01*
X167478820Y-80581240D01*
X167450000Y-80726126D01*
X154050650Y-80726126D01*
X153930109Y-80560213D01*
X153816569Y-80446673D01*
X153783084Y-80385350D01*
X153788068Y-80315658D01*
X153818505Y-80275000D01*
X168028554Y-80275000D01*
X168200000Y-80446446D01*
X168371446Y-80275000D01*
X169078554Y-80275000D01*
X169250000Y-80446446D01*
X169421446Y-80275000D01*
X170128554Y-80275000D01*
X170300000Y-80446446D01*
X170471446Y-80275000D01*
X170300000Y-80103554D01*
X170128554Y-80275000D01*
X169421446Y-80275000D01*
X169250000Y-80103554D01*
X169078554Y-80275000D01*
X168371446Y-80275000D01*
X168200000Y-80103554D01*
X168028554Y-80275000D01*
X153818505Y-80275000D01*
X153829940Y-80259725D01*
X153860915Y-80242810D01*
X153992331Y-80193796D01*
X154077199Y-80130264D01*
X154085070Y-80124372D01*
X154095826Y-80116318D01*
X154107546Y-80107546D01*
X154193796Y-79992331D01*
X154244091Y-79857483D01*
X154250500Y-79797873D01*
X154250500Y-79676126D01*
X167450000Y-79676126D01*
X167450000Y-79823873D01*
X167478820Y-79968759D01*
X167478822Y-79968767D01*
X167522421Y-80074024D01*
X167846446Y-79750000D01*
X167846446Y-79749999D01*
X167826556Y-79730109D01*
X168100000Y-79730109D01*
X168100000Y-79769891D01*
X168115224Y-79806645D01*
X168143355Y-79834776D01*
X168180109Y-79850000D01*
X168219891Y-79850000D01*
X168256645Y-79834776D01*
X168284776Y-79806645D01*
X168300000Y-79769891D01*
X168300000Y-79750000D01*
X168553554Y-79750000D01*
X168725000Y-79921446D01*
X168896446Y-79750000D01*
X168876555Y-79730109D01*
X169150000Y-79730109D01*
X169150000Y-79769891D01*
X169165224Y-79806645D01*
X169193355Y-79834776D01*
X169230109Y-79850000D01*
X169269891Y-79850000D01*
X169306645Y-79834776D01*
X169334776Y-79806645D01*
X169350000Y-79769891D01*
X169350000Y-79750000D01*
X169603554Y-79750000D01*
X169775000Y-79921446D01*
X169946446Y-79750000D01*
X169926555Y-79730109D01*
X170200000Y-79730109D01*
X170200000Y-79769891D01*
X170215224Y-79806645D01*
X170243355Y-79834776D01*
X170280109Y-79850000D01*
X170319891Y-79850000D01*
X170356645Y-79834776D01*
X170384776Y-79806645D01*
X170400000Y-79769891D01*
X170400000Y-79730109D01*
X170384776Y-79693355D01*
X170356645Y-79665224D01*
X170319891Y-79650000D01*
X170280109Y-79650000D01*
X170243355Y-79665224D01*
X170215224Y-79693355D01*
X170200000Y-79730109D01*
X169926555Y-79730109D01*
X169775000Y-79578554D01*
X169603554Y-79750000D01*
X169350000Y-79750000D01*
X169350000Y-79730109D01*
X169334776Y-79693355D01*
X169306645Y-79665224D01*
X169269891Y-79650000D01*
X169230109Y-79650000D01*
X169193355Y-79665224D01*
X169165224Y-79693355D01*
X169150000Y-79730109D01*
X168876555Y-79730109D01*
X168725000Y-79578554D01*
X168553554Y-79750000D01*
X168300000Y-79750000D01*
X168300000Y-79730109D01*
X168284776Y-79693355D01*
X168256645Y-79665224D01*
X168219891Y-79650000D01*
X168180109Y-79650000D01*
X168143355Y-79665224D01*
X168115224Y-79693355D01*
X168100000Y-79730109D01*
X167826556Y-79730109D01*
X167522421Y-79425974D01*
X167522420Y-79425974D01*
X167478823Y-79531228D01*
X167478820Y-79531240D01*
X167450000Y-79676126D01*
X154250500Y-79676126D01*
X154250500Y-79072420D01*
X167875974Y-79072420D01*
X167875974Y-79072421D01*
X168200000Y-79396446D01*
X168200001Y-79396446D01*
X168524024Y-79072421D01*
X168524022Y-79072420D01*
X168925974Y-79072420D01*
X168925974Y-79072421D01*
X169250000Y-79396446D01*
X169250001Y-79396446D01*
X169574024Y-79072421D01*
X169574022Y-79072420D01*
X169975974Y-79072420D01*
X169975974Y-79072421D01*
X170476777Y-79573223D01*
X170977577Y-80074024D01*
X170977578Y-80074024D01*
X171021175Y-79968775D01*
X171021179Y-79968760D01*
X171049999Y-79823873D01*
X171050000Y-79823871D01*
X171050000Y-79676128D01*
X171049999Y-79676126D01*
X171021179Y-79531240D01*
X171021177Y-79531232D01*
X170964642Y-79394745D01*
X170964637Y-79394735D01*
X170903947Y-79303906D01*
X170746091Y-79146050D01*
X170655269Y-79085365D01*
X170655254Y-79085357D01*
X170518767Y-79028822D01*
X170518759Y-79028820D01*
X170373872Y-79000000D01*
X170226128Y-79000000D01*
X170081240Y-79028820D01*
X170081228Y-79028823D01*
X169975974Y-79072420D01*
X169574022Y-79072420D01*
X169468767Y-79028822D01*
X169468759Y-79028820D01*
X169323872Y-79000000D01*
X169176128Y-79000000D01*
X169031240Y-79028820D01*
X169031228Y-79028823D01*
X168925974Y-79072420D01*
X168524022Y-79072420D01*
X168418767Y-79028822D01*
X168418759Y-79028820D01*
X168273872Y-79000000D01*
X168126128Y-79000000D01*
X167981240Y-79028820D01*
X167981228Y-79028823D01*
X167875974Y-79072420D01*
X154250500Y-79072420D01*
X154250499Y-78002128D01*
X154244091Y-77942517D01*
X154193796Y-77807669D01*
X154193795Y-77807668D01*
X154193793Y-77807664D01*
X154107547Y-77692455D01*
X154107544Y-77692452D01*
X153992335Y-77606206D01*
X153992328Y-77606202D01*
X153857482Y-77555908D01*
X153857483Y-77555908D01*
X153797883Y-77549501D01*
X153797881Y-77549500D01*
X153797873Y-77549500D01*
X153797864Y-77549500D01*
X152002129Y-77549500D01*
X152002123Y-77549501D01*
X151942515Y-77555909D01*
X151857832Y-77587493D01*
X151788140Y-77592477D01*
X151726818Y-77558991D01*
X151693333Y-77497668D01*
X151690500Y-77471311D01*
X151690500Y-76521153D01*
X168949500Y-76521153D01*
X168949500Y-76678846D01*
X168980261Y-76833489D01*
X168980264Y-76833501D01*
X169040602Y-76979172D01*
X169040609Y-76979185D01*
X169128210Y-77110288D01*
X169128213Y-77110292D01*
X169166415Y-77148493D01*
X169186212Y-77174330D01*
X169190354Y-77181528D01*
X169190423Y-77181785D01*
X169213520Y-77221789D01*
X169213609Y-77221943D01*
X169269479Y-77318714D01*
X169269481Y-77318717D01*
X169388349Y-77437585D01*
X169388355Y-77437590D01*
X172215139Y-80264374D01*
X172215149Y-80264385D01*
X172219479Y-80268715D01*
X172219480Y-80268716D01*
X172331284Y-80380520D01*
X172418095Y-80430639D01*
X172418097Y-80430641D01*
X172456151Y-80452611D01*
X172468215Y-80459577D01*
X172620943Y-80500501D01*
X172620946Y-80500501D01*
X172786653Y-80500501D01*
X172786669Y-80500500D01*
X174599903Y-80500500D01*
X174666942Y-80520185D01*
X174687584Y-80536819D01*
X175065425Y-80914660D01*
X175098910Y-80975983D01*
X175099361Y-80978149D01*
X175130261Y-81133491D01*
X175130264Y-81133501D01*
X175190602Y-81279172D01*
X175190609Y-81279185D01*
X175278210Y-81410288D01*
X175278213Y-81410292D01*
X175389707Y-81521786D01*
X175389711Y-81521789D01*
X175520814Y-81609390D01*
X175520827Y-81609397D01*
X175666498Y-81669735D01*
X175666503Y-81669737D01*
X175821153Y-81700499D01*
X175821156Y-81700500D01*
X175821158Y-81700500D01*
X175978844Y-81700500D01*
X175978845Y-81700499D01*
X176133497Y-81669737D01*
X176279179Y-81609394D01*
X176410289Y-81521789D01*
X176521789Y-81410289D01*
X176609394Y-81279179D01*
X176669737Y-81133497D01*
X176700500Y-80978842D01*
X176700500Y-80821158D01*
X176700500Y-80821155D01*
X176700499Y-80821153D01*
X176669738Y-80666510D01*
X176669737Y-80666503D01*
X176654018Y-80628554D01*
X176609397Y-80520827D01*
X176609390Y-80520814D01*
X176521789Y-80389711D01*
X176521786Y-80389707D01*
X176410292Y-80278213D01*
X176410288Y-80278210D01*
X176279185Y-80190609D01*
X176279172Y-80190602D01*
X176133501Y-80130264D01*
X176133491Y-80130261D01*
X175978151Y-80099362D01*
X175916241Y-80066977D01*
X175914662Y-80065426D01*
X175387590Y-79538355D01*
X175387588Y-79538352D01*
X175268717Y-79419481D01*
X175268716Y-79419480D01*
X175181904Y-79369360D01*
X175181904Y-79369359D01*
X175181900Y-79369358D01*
X175131785Y-79340423D01*
X174979057Y-79299499D01*
X174820943Y-79299499D01*
X174813347Y-79299499D01*
X174813331Y-79299500D01*
X173000097Y-79299500D01*
X172933058Y-79279815D01*
X172912416Y-79263181D01*
X170560464Y-76911229D01*
X170526979Y-76849906D01*
X170526528Y-76799356D01*
X170550500Y-76678844D01*
X170550500Y-76521155D01*
X170550499Y-76521153D01*
X170519738Y-76366510D01*
X170519737Y-76366503D01*
X170519735Y-76366498D01*
X170459397Y-76220827D01*
X170459390Y-76220814D01*
X170371789Y-76089711D01*
X170371786Y-76089707D01*
X170260292Y-75978213D01*
X170260288Y-75978210D01*
X170129185Y-75890609D01*
X170129172Y-75890602D01*
X169983501Y-75830264D01*
X169983489Y-75830261D01*
X169828845Y-75799500D01*
X169828842Y-75799500D01*
X169671158Y-75799500D01*
X169671155Y-75799500D01*
X169516510Y-75830261D01*
X169516498Y-75830264D01*
X169370827Y-75890602D01*
X169370814Y-75890609D01*
X169239711Y-75978210D01*
X169239707Y-75978213D01*
X169128213Y-76089707D01*
X169128210Y-76089711D01*
X169040609Y-76220814D01*
X169040602Y-76220827D01*
X168980264Y-76366498D01*
X168980261Y-76366510D01*
X168949500Y-76521153D01*
X151690500Y-76521153D01*
X151690500Y-66878711D01*
X152949500Y-66878711D01*
X152949500Y-67121288D01*
X152981161Y-67361785D01*
X153043947Y-67596104D01*
X153136773Y-67820205D01*
X153136776Y-67820212D01*
X153258064Y-68030289D01*
X153258066Y-68030292D01*
X153258067Y-68030293D01*
X153405733Y-68222736D01*
X153405739Y-68222743D01*
X153577256Y-68394260D01*
X153577262Y-68394265D01*
X153769711Y-68541936D01*
X153979788Y-68663224D01*
X154203900Y-68756054D01*
X154438211Y-68818838D01*
X154618586Y-68842584D01*
X154678711Y-68850500D01*
X154678712Y-68850500D01*
X154921289Y-68850500D01*
X154969388Y-68844167D01*
X155161789Y-68818838D01*
X155396100Y-68756054D01*
X155620212Y-68663224D01*
X155830289Y-68541936D01*
X156022738Y-68394265D01*
X156194265Y-68222738D01*
X156341936Y-68030289D01*
X156463224Y-67820212D01*
X156556054Y-67596100D01*
X156618838Y-67361789D01*
X156650500Y-67121288D01*
X156650500Y-66878712D01*
X156650500Y-66878711D01*
X180749500Y-66878711D01*
X180749500Y-67121288D01*
X180781161Y-67361785D01*
X180843947Y-67596104D01*
X180936773Y-67820205D01*
X180936776Y-67820212D01*
X181058064Y-68030289D01*
X181058066Y-68030292D01*
X181058067Y-68030293D01*
X181205733Y-68222736D01*
X181205739Y-68222743D01*
X181377256Y-68394260D01*
X181377262Y-68394265D01*
X181569711Y-68541936D01*
X181779788Y-68663224D01*
X182003900Y-68756054D01*
X182238211Y-68818838D01*
X182418586Y-68842584D01*
X182478711Y-68850500D01*
X182478712Y-68850500D01*
X182721289Y-68850500D01*
X182769388Y-68844167D01*
X182961789Y-68818838D01*
X183196100Y-68756054D01*
X183420212Y-68663224D01*
X183630289Y-68541936D01*
X183822738Y-68394265D01*
X183994265Y-68222738D01*
X184141936Y-68030289D01*
X184263224Y-67820212D01*
X184356054Y-67596100D01*
X184418838Y-67361789D01*
X184450500Y-67121288D01*
X184450500Y-66878712D01*
X184418838Y-66638211D01*
X184356054Y-66403900D01*
X184263224Y-66179788D01*
X184141936Y-65969711D01*
X184059018Y-65861650D01*
X183994266Y-65777263D01*
X183994260Y-65777256D01*
X183822743Y-65605739D01*
X183822736Y-65605733D01*
X183630293Y-65458067D01*
X183630292Y-65458066D01*
X183630289Y-65458064D01*
X183420212Y-65336776D01*
X183413930Y-65334174D01*
X183196104Y-65243947D01*
X182961785Y-65181161D01*
X182721289Y-65149500D01*
X182721288Y-65149500D01*
X182478712Y-65149500D01*
X182478711Y-65149500D01*
X182238214Y-65181161D01*
X182003895Y-65243947D01*
X181779794Y-65336773D01*
X181779785Y-65336777D01*
X181650871Y-65411206D01*
X181571622Y-65456961D01*
X181569706Y-65458067D01*
X181377263Y-65605733D01*
X181377256Y-65605739D01*
X181205739Y-65777256D01*
X181205733Y-65777263D01*
X181058067Y-65969706D01*
X180936777Y-66179785D01*
X180936773Y-66179794D01*
X180843947Y-66403895D01*
X180781161Y-66638214D01*
X180749500Y-66878711D01*
X156650500Y-66878711D01*
X156618838Y-66638211D01*
X156556054Y-66403900D01*
X156463224Y-66179788D01*
X156341936Y-65969711D01*
X156259018Y-65861650D01*
X156194266Y-65777263D01*
X156194260Y-65777256D01*
X156022743Y-65605739D01*
X156022736Y-65605733D01*
X155830293Y-65458067D01*
X155830292Y-65458066D01*
X155830289Y-65458064D01*
X155620212Y-65336776D01*
X155613930Y-65334174D01*
X155396104Y-65243947D01*
X155161785Y-65181161D01*
X154921289Y-65149500D01*
X154921288Y-65149500D01*
X154678712Y-65149500D01*
X154678711Y-65149500D01*
X154438214Y-65181161D01*
X154203895Y-65243947D01*
X153979794Y-65336773D01*
X153979785Y-65336777D01*
X153850871Y-65411206D01*
X153771622Y-65456961D01*
X153769706Y-65458067D01*
X153577263Y-65605733D01*
X153577256Y-65605739D01*
X153405739Y-65777256D01*
X153405733Y-65777263D01*
X153258067Y-65969706D01*
X153136777Y-66179785D01*
X153136773Y-66179794D01*
X153043947Y-66403895D01*
X152981161Y-66638214D01*
X152949500Y-66878711D01*
X151690500Y-66878711D01*
X151690500Y-64004500D01*
X151710185Y-63937461D01*
X151762989Y-63891706D01*
X151814500Y-63880500D01*
X165803327Y-63880500D01*
X165870366Y-63900185D01*
G37*
%TD.AperFunction*%
%TD*%
M02*
